<svg xmlns="http://www.w3.org/2000/svg" viewBox="0 0 16 16">
  <defs>
    <style>.canvas{fill: none; opacity: 0;}.light-purple{fill: #6936aa; opacity: 1;}.light-purple-10{fill: #6936aa; opacity: 0.1;}.light-defaultgrey{fill: #212121; opacity: 1;}.light-defaultgrey-10{fill: #212121; opacity: 0.1;}</style>
  </defs>
  <title>IconLightDelegateSealed</title>
  <g id="canvas" class="canvas">
    <path class="canvas" d="M16,16H0V0H16Z" />
  </g>
  <g id="level-1">
    <path class="light-purple" d="M8.153,13.665A4.536,4.536,0,0,1,8.045,13H4V5h8V8.045c.154-.017.306-.027.458-.029h0A4.074,4.074,0,0,1,13,8.038V5h1V8.263h0a4,4,0,0,1,.561.256A4.625,4.625,0,0,1,15,8.783h0V4.5L14.5,4H1.5L1,4.5v9l.5.5H8.281C8.24,13.887,8.185,13.783,8.153,13.665ZM3,13H2V5H3Z" />
    <path class="light-purple-10" d="M8.121,13.5H1.5v-9h13V8.49a4.447,4.447,0,0,0-2-.49A4.505,4.505,0,0,0,8,12.5,4.458,4.458,0,0,0,8.121,13.5Z" />
    <path class="light-defaultgrey" d="M11,2.5V4H10V3H6V4H5V2.5L5.5,2h5Z" />
    <path class="light-defaultgrey-10" d="M15.5,12.5a3,3,0,1,1-3-3A3,3,0,0,1,15.5,12.5Z" />
    <path class="light-defaultgrey" d="M9,12.5A3.5,3.5,0,1,0,12.5,9,3.5,3.5,0,0,0,9,12.5Zm6,0a2.486,2.486,0,0,1-.416,1.377l-3.461-3.461A2.5,2.5,0,0,1,15,12.5Zm-5,0a2.486,2.486,0,0,1,.416-1.377l3.461,3.461A2.5,2.5,0,0,1,10,12.5Z" />
  </g>
</svg>
