<svg xmlns="http://www.w3.org/2000/svg" viewBox="0 0 16 16">
  <defs>
    <style>.canvas{fill: none; opacity: 0;}.light-blue-10{fill: #005dba; opacity: 0.1;}.light-blue{fill: #005dba; opacity: 1;}.white{fill: #ffffff; opacity: 1;}.light-defaultgrey-10{fill: #212121; opacity: 0.1;}.light-defaultgrey{fill: #212121; opacity: 1;}.cls-1{opacity:0.75;}</style>
  </defs>
  <title>IconLightEnumerationItemInternal</title>
  <g id="canvas" class="canvas">
    <path class="canvas" d="M16,16H0V0H16Z" />
  </g>
  <g id="level-1">
    <g class="cls-1">
      <path class="light-blue-10" d="M9,7H6.5V2.5h8V8.191a3.313,3.313,0,0,0-2.5.18,3.411,3.411,0,0,0-3,.007Z" />
      <path class="light-blue" d="M12.5,5h-4V4h4Zm-4,2h4V6h-4Zm6-5h-8L6,2.5V7H7V3h7V8H10v.078a3.443,3.443,0,0,1,.5-.051,3.483,3.483,0,0,1,1.5.344,3.411,3.411,0,0,1,3,.007V2.5Z" />
    </g>
    <path class="light-blue" d="M8.114,14H1.5L1,13.5v-6L1.5,7h8l.5.5v.578a3.494,3.494,0,0,0-3,3.449,3.605,3.605,0,0,0,.316,1.439l.182.346A3.027,3.027,0,0,0,8.114,14Z" />
    <path class="white" d="M7.053,11H3V10H7.366A3.46,3.46,0,0,0,7.053,11Z" />
    <path class="light-defaultgrey-10" d="M15.5,11.527a1.99,1.99,0,0,1-.148.75l-.138.266c-.2.33-3.214,2.809-3.214,2.809s-3.018-2.479-3.214-2.809l-.138-.266A1.993,1.993,0,0,1,12,10.217a1.992,1.992,0,0,1,3.5,1.31Z" />
    <path class="light-defaultgrey" d="M13.5,9.027a2.478,2.478,0,0,0-1.5.509,2.491,2.491,0,0,0-4,1.991,2.54,2.54,0,0,0,.2.979l.152.294a33.652,33.652,0,0,0,3.327,2.939L12,16l.317-.261a31.569,31.569,0,0,0,3.342-2.968l.156-.306A2.5,2.5,0,0,0,13.5,9.027ZM14.9,12.074l-.1.193c-.167.217-1.5,1.363-2.8,2.437-1.3-1.074-2.63-2.217-2.771-2.39l-.117-.224a1.493,1.493,0,0,1,2.512-1.544l.376.431.376-.431A1.494,1.494,0,0,1,14.9,12.074Z" />
  </g>
</svg>
