<svg xmlns="http://www.w3.org/2000/svg" viewBox="0 0 16 16">
  <defs>
    <style>.canvas{fill: none; opacity: 0;}.light-blue-10{fill: #005dba; opacity: 0.1;}.light-blue{fill: #005dba; opacity: 1;}.white{fill: #ffffff; opacity: 1;}.light-defaultgrey-10{fill: #212121; opacity: 0.1;}.light-defaultgrey{fill: #212121; opacity: 1;}.cls-1{opacity:0.75;}</style>
  </defs>
  <title>IconLightEnumerationItemPrivate</title>
  <g id="canvas" class="canvas">
    <path class="canvas" d="M16,16H0V0H16Z" />
  </g>
  <g id="level-1">
    <g class="cls-1">
      <path class="light-blue-10" d="M9,7H6.5V2.5h8V7.417A2.952,2.952,0,0,0,10.417,8.5H9Z" />
      <path class="light-blue" d="M8.5,4h4V5h-4Zm0,3h4V6h-4Zm6-5h-8L6,2.5V7H7V3h7V7.184a2.989,2.989,0,0,1,1,.6V2.5ZM10,9h.184a2.989,2.989,0,0,1,.6-1H10Z" />
    </g>
    <path class="light-blue" d="M9,14H1.5L1,13.5v-6L1.5,7h8l.5.5v2.586l-1,1Z" />
    <path class="white" d="M8,11H3V10H8Z" />
    <path class="light-defaultgrey-10" d="M15.5,11.5v4h-5v-4Z" />
    <path class="light-defaultgrey" d="M15.5,11H15V10a2,2,0,0,0-4,0v1h-.5l-.5.5v4l.5.5h5l.5-.5v-4ZM12,10a1,1,0,0,1,2,0v1H12Zm3,5H11V12h4Z" />
  </g>
</svg>
