<svg xmlns="http://www.w3.org/2000/svg" viewBox="0 0 16 16">
  <defs>
    <style>.canvas{fill: none; opacity: 0;}.light-purple{fill: #6936aa; opacity: 1;}.light-purple-10{fill: #6936aa; opacity: 0.1;}.light-defaultgrey-10{fill: #212121; opacity: 0.1;}.light-defaultgrey{fill: #212121; opacity: 1;}.cls-1{opacity:0.75;}</style>
  </defs>
  <title>IconLightMethodSealed</title>
  <g id="canvas" class="canvas">
    <path class="canvas" d="M16,16H0V0H16Z" />
  </g>
  <g id="level-1">
    <g class="cls-1">
      <path class="light-purple" d="M10.765,4.765,6.274,1.97H5.746l-4.51,2.8L1,5.189V10.4l.25.433,4.5,2.6h.5l1.758-1.015a4.49,4.49,0,0,1,.227-1.286l-1.734,1,0-4.059L10,6.055V8.762a4.493,4.493,0,0,1,1-.486V5.189ZM6.009,2.983l3.52,2.191L6,7.21,2.474,5.174ZM2,10.113V6.056l3.5,2.02,0,4.059Z" />
      <path class="light-purple-10" d="M8.066,11.847,6,13,1.5,10.4V5.189L6.009,2.4,10.5,5.189v3.3A4.484,4.484,0,0,0,8.066,11.847Z" />
    </g>
    <path class="light-purple-10" d="M6.009,2.4,10.5,5.189,6,7.787l-4.5-2.6Z" />
    <path class="light-purple" d="M5.754,8.221l-4.5-2.6-.014-.858L5.746,1.97h.528l4.491,2.8-.015.857-4.5,2.6ZM2.474,5.174,6,7.21,9.528,5.174,6.009,2.983Z" />
    <path class="light-defaultgrey-10" d="M12.5,9.5a3,3,0,1,1-3,3A3,3,0,0,1,12.5,9.5Z" />
    <path class="light-defaultgrey" d="M9,12.5A3.5,3.5,0,1,0,12.5,9,3.5,3.5,0,0,0,9,12.5Zm6,0a2.486,2.486,0,0,1-.416,1.377l-3.461-3.461A2.5,2.5,0,0,1,15,12.5Zm-5,0a2.486,2.486,0,0,1,.416-1.377l3.461,3.461A2.5,2.5,0,0,1,10,12.5Z" />
  </g>
</svg>
