<svg xmlns="http://www.w3.org/2000/svg" viewBox="0 0 16 16">
  <defs>
    <style>.canvas{fill: none; opacity: 0;}.light-purple-10{fill: #6936aa; opacity: 0.1;}.light-purple{fill: #6936aa; opacity: 1;}.cls-1{opacity:0.75;}</style>
  </defs>
  <title>IconLightModulePublic</title>
  <g id="canvas" class="canvas">
    <path class="canvas" d="M16,16H0V0H16Z" />
  </g>
  <g id="level-1">
    <g class="cls-1">
      <path class="light-purple-10" d="M13.5,9.5v5H1.5v-5Z" />
      <path class="light-purple" d="M13.5,9H1.5L1,9.5v5l.5.5h12l.5-.5v-5ZM13,14H2V10H13Z" />
    </g>
    <path class="light-purple-10" d="M1.5,2.5h5v5h-5Zm7,0v5h5v-5Z" />
    <path class="light-purple" d="M1.5,2,1,2.5v5l.5.5h5L7,7.5v-5L6.5,2ZM6,7H2V3H6Zm7.5-5h-5L8,2.5v5l.5.5h5l.5-.5v-5ZM13,7H9V3h4Z" />
  </g>
</svg>
