<svg xmlns="http://www.w3.org/2000/svg" viewBox="0 0 16 16">
  <defs>
    <style>.canvas{fill: none; opacity: 0;}.light-defaultgrey-10{fill: #212121; opacity: 0.1;}.light-defaultgrey{fill: #212121; opacity: 1;}.light-red{fill: #c50b17; opacity: 1;}.white{fill: #ffffff; opacity: 1;}</style>
  </defs>
  <title>IconLightViewError</title>
  <g id="canvas">
    <path class="canvas" d="M16,16H0V0H16Z" />
  </g>
  <g id="level-1">
    <path class="light-defaultgrey-10" d="M1.5,1.5v12H7.22c-.04-.17-.09-.33-.12-.5A4.712,4.712,0,0,1,7,12a5,5,0,0,1,5-5,4.712,4.712,0,0,1,1,.1c.17.03.33.08.5.12V1.5Z" />
    <path class="light-defaultgrey" d="M13.5,1H1.5L1,1.5v12l.5.5H7.41c-.07-.16-.13-.33-.19-.5-.04-.17-.09-.33-.12-.5H2.71l2.64-2.65-.7-.7L2,12.29V2.71L4.65,5.35l.7-.7L2.71,2h9.58L9.65,4.65l.7.7L13,2.71V7.1c.17.03.33.08.5.12.17.06.34.12.5.19V1.5Z" />
    <path class="light-red" d="M12,8a4,4,0,1,0,4,4A4,4,0,0,0,12,8Z" />
    <path class="white" d="M12.707,12l1.147,1.146-.708.708L12,12.707l-1.146,1.147-.708-.708L11.293,12l-1.147-1.146.708-.708L12,11.293l1.146-1.147.708.708Z" />
  </g>
</svg>
